<?xml version="1.0" standalone="no"?>
<!DOCTYPE svg PUBLIC "-//W3C//DTD SVG 1.1//EN"
"http://www.w3.org/Graphics/SVG/1.1/DTD/svg11.dtd">

<svg width="289" height="263" view_box="0 0 289 263"
xmlns="http://www.w3.org/2000/svg"
xmlns:link="http://www.w3.org/1999/xlink">\n\n<desc>Généré par Mocodo 2.3.7 le Tue, 23 Nov 2021 06:46:54</desc>

<rect id="frame" x="0" y="0" width="289" height="263" fill="#ffffbf" stroke="none" stroke-width="0"/>

<!-- Association CREATE -->
<line x1="146" y1="195" x2="43" y2="195" stroke="#f46d43" stroke-width="2"/>
<text x="80" y="212.0" fill="#4575b4" font-family="Verdana" font-size="12">0,N</text>
<line x1="43" y1="60" x2="43" y2="195" stroke="#f46d43" stroke-width="2"/>
<text x="48.0" y="128" fill="#4575b4" font-family="Verdana" font-size="12">1,N</text>
<g id="association-CREATE">
	<path d="M 61 170 a 14 14 90 0 1 14 14 V 195 h -64 V 184 a 14 14 90 0 1 14 -14" fill="#fdae61" stroke="#fdae61" stroke-width="0"/>
	<path d="M 75 195.0 v 11 a 14 14 90 0 1 -14 14 H 25 a 14 14 90 0 1 -14 -14 V 195.0 H 64" fill="#fee090" stroke="#fee090" stroke-width="0"/>
	<rect x="11" y="170" width="64" height="50" fill="none" rx="14" stroke="#f46d43" stroke-width="2"/>
	<line x1="11" y1="195" x2="75" y2="195" stroke="#f46d43" stroke-width="1"/>
	<text x="18" y="187.7" fill="#000000" font-family="Verdana" font-size="12">CREATE</text>
</g>

<!-- Association HAS -->
<line x1="239" y1="60" x2="146" y2="60" stroke="#f46d43" stroke-width="2"/>
<text x="172" y="77.0" fill="#4575b4" font-family="Verdana" font-size="12">1,1</text>
<line x1="43" y1="60" x2="146" y2="60" stroke="#f46d43" stroke-width="2"/>
<text x="82" y="77.0" fill="#4575b4" font-family="Verdana" font-size="12">1,1</text>
<g id="association-HAS">
	<path d="M 152 35 a 14 14 90 0 1 14 14 V 60 h -40 V 49 a 14 14 90 0 1 14 -14" fill="#fdae61" stroke="#fdae61" stroke-width="0"/>
	<path d="M 166 60.0 v 11 a 14 14 90 0 1 -14 14 H 140 a 14 14 90 0 1 -14 -14 V 60.0 H 40" fill="#fee090" stroke="#fee090" stroke-width="0"/>
	<rect x="126" y="35" width="40" height="50" fill="none" rx="14" stroke="#f46d43" stroke-width="2"/>
	<line x1="126" y1="60" x2="166" y2="60" stroke="#f46d43" stroke-width="1"/>
	<text x="133" y="52.7" fill="#000000" font-family="Verdana" font-size="12">HAS</text>
</g>

<!-- Entity JOB -->
<g id="entity-JOB">
	<g id="frame-JOB">
		<rect x="107" y="136" width="78" height="25" fill="#abd9e9" stroke="#abd9e9" stroke-width="0"/>
		<rect x="107" y="161.0" width="78" height="93" fill="#e0f3f8" stroke="#e0f3f8" stroke-width="0"/>
		<rect x="107" y="136" width="78" height="118" fill="none" stroke="#74add1" stroke-width="2"/>
		<line x1="107" y1="161" x2="185" y2="161" stroke="#74add1" stroke-width="1"/>
	</g>
	<text x="134" y="153.7" fill="#000000" font-family="Verdana" font-size="12">JOB</text>
	<text x="112" y="178.7" fill="#000000" font-family="Verdana" font-size="12">title</text>
	<line x1="112" y1="181" x2="136" y2="181" stroke="#000000" stroke-width="1"/>
	<text x="112" y="195.8" fill="#000000" font-family="Verdana" font-size="12">region</text>
	<text x="112" y="212.8" fill="#000000" font-family="Verdana" font-size="12">city</text>
	<text x="112" y="229.8" fill="#000000" font-family="Verdana" font-size="12">type</text>
	<text x="112" y="246.8" fill="#000000" font-family="Verdana" font-size="12">description</text>
</g>

<!-- Entity PASSWORD -->
<g id="entity-PASSWORD">
	<g id="frame-PASSWORD">
		<rect x="198" y="35" width="82" height="25" fill="#abd9e9" stroke="#abd9e9" stroke-width="0"/>
		<rect x="198" y="60.0" width="82" height="25" fill="#e0f3f8" stroke="#e0f3f8" stroke-width="0"/>
		<rect x="198" y="35" width="82" height="50" fill="none" stroke="#74add1" stroke-width="2"/>
		<line x1="198" y1="60" x2="280" y2="60" stroke="#74add1" stroke-width="1"/>
	</g>
	<text x="203" y="52.7" fill="#000000" font-family="Verdana" font-size="12">PASSWORD</text>
	<text x="203" y="77.8" fill="#000000" font-family="Verdana" font-size="12">hash</text>
	<line x1="203" y1="80" x2="233" y2="80" stroke="#000000" stroke-width="1"/>
</g>

<!-- Entity USER -->
<g id="entity-USER">
	<g id="frame-USER">
		<rect x="9" y="9" width="68" height="25" fill="#abd9e9" stroke="#abd9e9" stroke-width="0"/>
		<rect x="9" y="34.0" width="68" height="77" fill="#e0f3f8" stroke="#e0f3f8" stroke-width="0"/>
		<rect x="9" y="9" width="68" height="102" fill="none" stroke="#74add1" stroke-width="2"/>
		<line x1="9" y1="34" x2="77" y2="34" stroke="#74add1" stroke-width="1"/>
	</g>
	<text x="26" y="26.7" fill="#000000" font-family="Verdana" font-size="12">USER</text>
	<text x="14" y="51.7" fill="#000000" font-family="Verdana" font-size="12">role</text>
	<line x1="14" y1="54" x2="38" y2="54" stroke="#000000" stroke-width="1"/>
	<text x="14" y="68.8" fill="#000000" font-family="Verdana" font-size="12">lastname</text>
	<text x="14" y="85.8" fill="#000000" font-family="Verdana" font-size="12">firstname</text>
	<text x="14" y="102.8" fill="#000000" font-family="Verdana" font-size="12">mail</text>
</g>
</svg>